<svg xmlns="http://www.w3.org/2000/svg" width="46" height="47" viewBox="0 0 46 47" fill="none"><path d="M18.5176 4.47461C13.9265 10.4507 11.5244 15.9953 11.5244 21.082C11.5244 26.3447 14.4101 30.583 19.832 33.8086V33.9492L13.2109 45.0215C9.19788 43.4375 6.22343 41.2443 4.21973 38.4756C2.09246 35.536 1.00005 31.8666 1 27.4062C1 22.9342 2.03753 18.2311 4.14355 13.29C6.14475 8.59492 8.5747 4.57698 11.4248 1.22363L18.5176 4.47461ZM42.5986 4.47852C37.9956 10.676 35.5801 16.2636 35.5801 21.2061C35.5801 26.3353 38.5739 30.5255 44.1357 33.8105V33.9443L37.3984 45.0215C33.4223 43.4382 30.4535 41.2452 28.4287 38.4727C26.2778 35.5273 25.1354 31.8512 25.0557 27.3877C25.0585 22.9239 26.0953 18.2729 28.1943 13.4268C30.2749 8.72614 32.7495 4.66433 35.6104 1.23047L42.5986 4.47852Z" stroke="#C04B62" stroke-width="2"></path></svg>