<svg xmlns="http://www.w3.org/2000/svg" width="198" height="198" viewBox="0 0 198 198" fill="none"><rect x="100" y="0.00219727" width="6" height="100" rx="3" transform="rotate(90 100 0.00219727)" fill="#FFEBC2"></rect><circle cx="111" cy="3.0022" r="3" fill="#FFEBC2"></circle><circle cx="125" cy="3.0022" r="3" fill="#FFEBC2"></circle><circle cx="139" cy="3.0022" r="3" fill="#FFEBC2"></circle><circle cx="153" cy="3.0022" r="3" fill="#FFEBC2"></circle><circle cx="167" cy="3.0022" r="3" fill="#FFEBC2"></circle><rect x="100" y="14.0022" width="6" height="100" rx="3" transform="rotate(90 100 14.0022)" fill="#FFEBC2"></rect><circle cx="111" cy="17.0022" r="3" fill="#FFEBC2"></circle><circle cx="125" cy="17.0022" r="3" fill="#FFEBC2"></circle><circle cx="139" cy="17.0022" r="3" fill="#FFEBC2"></circle><circle cx="153" cy="17.0022" r="3" fill="#FFEBC2"></circle><circle cx="167" cy="17.0022" r="3" fill="#FFEBC2"></circle><circle cx="195" cy="3.0022" r="3" transform="rotate(90 195 3.0022)" fill="#FFEBC2"></circle><circle cx="195" cy="17.0022" r="3" transform="rotate(90 195 17.0022)" fill="#FFEBC2"></circle><circle cx="195" cy="31.0022" r="3" transform="rotate(90 195 31.0022)" fill="#FFEBC2"></circle><circle cx="195" cy="45.0022" r="3" transform="rotate(90 195 45.0022)" fill="#FFEBC2"></circle><circle cx="195" cy="59.0022" r="3" transform="rotate(90 195 59.0022)" fill="#FFEBC2"></circle><circle cx="195" cy="73.0022" r="3" transform="rotate(90 195 73.0022)" fill="#FFEBC2"></circle><circle cx="195" cy="87.0022" r="3" transform="rotate(90 195 87.0022)" fill="#FFEBC2"></circle><rect x="192" y="98.0022" width="6" height="100" rx="3" fill="#FFEBC2"></rect><circle cx="181" cy="3.0022" r="3" transform="rotate(90 181 3.0022)" fill="#FFEBC2"></circle><circle cx="181" cy="17.0022" r="3" transform="rotate(90 181 17.0022)" fill="#FFEBC2"></circle><circle cx="181" cy="31.0022" r="3" transform="rotate(90 181 31.0022)" fill="#FFEBC2"></circle><circle cx="181" cy="45.0022" r="3" transform="rotate(90 181 45.0022)" fill="#FFEBC2"></circle><circle cx="181" cy="59.0022" r="3" transform="rotate(90 181 59.0022)" fill="#FFEBC2"></circle><circle cx="181" cy="73.0022" r="3" transform="rotate(90 181 73.0022)" fill="#FFEBC2"></circle><circle cx="181" cy="87.0022" r="3" transform="rotate(90 181 87.0022)" fill="#FFEBC2"></circle><rect x="178" y="98.0022" width="6" height="100" rx="3" fill="#FFEBC2"></rect></svg>