<svg xmlns="http://www.w3.org/2000/svg" width="20" height="198" viewBox="0 0 20 198" fill="none"><circle cx="3" cy="3" r="3" transform="matrix(0 1 1 0 0 0.00219727)" fill="#FFEBC2"></circle><circle cx="3" cy="3" r="3" transform="matrix(0 1 1 0 0 14.0022)" fill="#FFEBC2"></circle><circle cx="3" cy="3" r="3" transform="matrix(0 1 1 0 0 28.0022)" fill="#FFEBC2"></circle><circle cx="3" cy="3" r="3" transform="matrix(0 1 1 0 0 42.002)" fill="#FFEBC2"></circle><circle cx="3" cy="3" r="3" transform="matrix(0 1 1 0 0 56.002)" fill="#FFEBC2"></circle><circle cx="3" cy="3" r="3" transform="matrix(0 1 1 0 0 70.002)" fill="#FFEBC2"></circle><circle cx="3" cy="3" r="3" transform="matrix(0 1 1 0 0 84.002)" fill="#FFEBC2"></circle><rect width="6" height="100" rx="3" transform="matrix(-1 0 0 1 6 98.002)" fill="#FFEBC2"></rect><circle cx="3" cy="3" r="3" transform="matrix(0 1 1 0 14 0.00219727)" fill="#FFEBC2"></circle><circle cx="3" cy="3" r="3" transform="matrix(0 1 1 0 14 14.0022)" fill="#FFEBC2"></circle><circle cx="3" cy="3" r="3" transform="matrix(0 1 1 0 14 28.0022)" fill="#FFEBC2"></circle><circle cx="3" cy="3" r="3" transform="matrix(0 1 1 0 14 42.002)" fill="#FFEBC2"></circle><circle cx="3" cy="3" r="3" transform="matrix(0 1 1 0 14 56.002)" fill="#FFEBC2"></circle><circle cx="3" cy="3" r="3" transform="matrix(0 1 1 0 14 70.002)" fill="#FFEBC2"></circle><circle cx="3" cy="3" r="3" transform="matrix(0 1 1 0 14 84.002)" fill="#FFEBC2"></circle><rect width="6" height="100" rx="3" transform="matrix(-1 0 0 1 20 98.002)" fill="#FFEBC2"></rect></svg>