<svg xmlns="http://www.w3.org/2000/svg" width="20" height="198" viewBox="0 0 20 198" fill="none"><circle cx="3" cy="3" r="3" transform="matrix(0 1 1 0 0 0)" fill="#C04B62"></circle><circle cx="3" cy="3" r="3" transform="matrix(0 1 1 0 0 14)" fill="#C04B62"></circle><circle cx="3" cy="3" r="3" transform="matrix(0 1 1 0 0 28)" fill="#C04B62"></circle><circle cx="3" cy="3" r="3" transform="matrix(0 1 1 0 0 42)" fill="#C04B62"></circle><circle cx="3" cy="3" r="3" transform="matrix(0 1 1 0 0 56)" fill="#C04B62"></circle><circle cx="3" cy="3" r="3" transform="matrix(0 1 1 0 0 70)" fill="#C04B62"></circle><circle cx="3" cy="3" r="3" transform="matrix(0 1 1 0 0 84)" fill="#C04B62"></circle><rect width="6" height="100" rx="3" transform="matrix(-1 0 0 1 6 98)" fill="#C04B62"></rect><circle cx="3" cy="3" r="3" transform="matrix(0 1 1 0 14 0)" fill="#C04B62"></circle><circle cx="3" cy="3" r="3" transform="matrix(0 1 1 0 14 14)" fill="#C04B62"></circle><circle cx="3" cy="3" r="3" transform="matrix(0 1 1 0 14 28)" fill="#C04B62"></circle><circle cx="3" cy="3" r="3" transform="matrix(0 1 1 0 14 42)" fill="#C04B62"></circle><circle cx="3" cy="3" r="3" transform="matrix(0 1 1 0 14 56)" fill="#C04B62"></circle><circle cx="3" cy="3" r="3" transform="matrix(0 1 1 0 14 70)" fill="#C04B62"></circle><circle cx="3" cy="3" r="3" transform="matrix(0 1 1 0 14 84)" fill="#C04B62"></circle><rect width="6" height="100" rx="3" transform="matrix(-1 0 0 1 20 98)" fill="#C04B62"></rect></svg>