<svg xmlns="http://www.w3.org/2000/svg" width="198" height="198" viewBox="0 0 198 198" fill="none"><rect x="100" width="6" height="100" rx="3" transform="rotate(90 100 0)" fill="#C04B62"></rect><circle cx="111" cy="3" r="3" fill="#C04B62"></circle><circle cx="125" cy="3" r="3" fill="#C04B62"></circle><circle cx="139" cy="3" r="3" fill="#C04B62"></circle><circle cx="153" cy="3" r="3" fill="#C04B62"></circle><circle cx="167" cy="3" r="3" fill="#C04B62"></circle><rect x="100" y="14" width="6" height="100" rx="3" transform="rotate(90 100 14)" fill="#C04B62"></rect><circle cx="111" cy="17" r="3" fill="#C04B62"></circle><circle cx="125" cy="17" r="3" fill="#C04B62"></circle><circle cx="139" cy="17" r="3" fill="#C04B62"></circle><circle cx="153" cy="17" r="3" fill="#C04B62"></circle><circle cx="167" cy="17" r="3" fill="#C04B62"></circle><circle cx="195" cy="3" r="3" transform="rotate(90 195 3)" fill="#C04B62"></circle><circle cx="195" cy="17" r="3" transform="rotate(90 195 17)" fill="#C04B62"></circle><circle cx="195" cy="31" r="3" transform="rotate(90 195 31)" fill="#C04B62"></circle><circle cx="195" cy="45" r="3" transform="rotate(90 195 45)" fill="#C04B62"></circle><circle cx="195" cy="59" r="3" transform="rotate(90 195 59)" fill="#C04B62"></circle><circle cx="195" cy="73" r="3" transform="rotate(90 195 73)" fill="#C04B62"></circle><circle cx="195" cy="87" r="3" transform="rotate(90 195 87)" fill="#C04B62"></circle><rect x="192" y="98" width="6" height="100" rx="3" fill="#C04B62"></rect><circle cx="181" cy="3" r="3" transform="rotate(90 181 3)" fill="#C04B62"></circle><circle cx="181" cy="17" r="3" transform="rotate(90 181 17)" fill="#C04B62"></circle><circle cx="181" cy="31" r="3" transform="rotate(90 181 31)" fill="#C04B62"></circle><circle cx="181" cy="45" r="3" transform="rotate(90 181 45)" fill="#C04B62"></circle><circle cx="181" cy="59" r="3" transform="rotate(90 181 59)" fill="#C04B62"></circle><circle cx="181" cy="73" r="3" transform="rotate(90 181 73)" fill="#C04B62"></circle><circle cx="181" cy="87" r="3" transform="rotate(90 181 87)" fill="#C04B62"></circle><rect x="178" y="98" width="6" height="100" rx="3" fill="#C04B62"></rect></svg>